# xmcd
#
# Track frame offsets:
#	150
#	20715
#	35967
#	54132
#	69870
#	85915
#	101607
#	113395
#	124302
#	140515
#	155790
#	171550
#	191555
#	212277
#	227432
#	241140
#	257532
#	269717
#
# Disc length: 3803 seconds
#
# Revision: 1
# Processed by: cddbd v1.5PL3 Copyright (c) Steve Scherf et al.
# Submitted via: CDex 1.50Beta5
#
DISCID=f90ed912
DTITLE=Various Artist - ヒットポップス大全集 Disc03
DYEAR=1900
DGENRE=Pop
TTITLE0=布施明/シクラメンのかほり
TTITLE1=布施明/積木の部屋
TTITLE2=伊東ゆかり/小指の想い出
TTITLE3=伊東ゆかり/恋のしずく
TTITLE4=梓みちよ/二人でお酒を
TTITLE5=梓みちよ/メランコリー
TTITLE6=中村晃子/虹色の湖
TTITLE7=夏木マリ/絹の靴下
TTITLE8=丸山圭子/どうぞこのまま
TTITLE9=ピンキーとキラーズ/恋の季節
TTITLE10=ビリー・バンバン/白いブランコ
TTITLE11=上条恒彦と六文銭/出発の歌
TTITLE12=岸洋子/希望
TTITLE13=ペギー葉山/学生時代
TTITLE14=芹洋子/四季の歌
TTITLE15=倍償千恵子/さよならはダンスの後に
TTITLE16=ザ・ピーナッツ/恋のバカンス
TTITLE17=ザ・ピーナッツ/ウナ・セラ・ディ東京
EXTD=
EXTT0=
EXTT1=
EXTT2=
EXTT3=
EXTT4=
EXTT5=
EXTT6=
EXTT7=
EXTT8=
EXTT9=
EXTT10=
EXTT11=
EXTT12=
EXTT13=
EXTT14=
EXTT15=
EXTT16=
EXTT17=
PLAYORDER=
